# AST/ASF file generated using VICON BodyLanguage
# -----------------------------------------------
:version 1.10
:name VICON
:units
  mass 1.0
  length 0.45
  angle deg
:documentation
   .ast/.asf automatically generated from VICON data using
   VICON BodyBuilder and BodyLanguage model FoxedUp or BRILLIANT.MOD
:root
   order TX TY TZ RX RY RZ
   axis XYZ
   position 0 0 0  
   orientation 0 0 0 
:bonedata
  begin
     id 1 
     name lhipjoint
     direction 0.64773 -0.699417 0.302095 
     length 2.48597 
     axis 0 0 0  XYZ
  end
  begin
     id 2 
     name lfemur
     direction 0.34202 -0.939693 0  
     length 6.71947  
     axis 0 0 20  XYZ
    dof rx ry rz
    limits (-160.0 20.0)
           (-70.0 70.0)
           (-60.0 70.0)
  end
  begin
     id 3 
     name ltibia
     direction 0.34202 -0.939693 0   
     length 8.08777   
     axis 0 0 20   XYZ
    dof rx
    limits (-10.0 170.0)
  end
  begin
     id 4 
     name lfoot
     direction 0.0808503 -0.222134 0.971658   
     length 2.08264   
     axis -90 7.62852e-016 20   XYZ
    dof rx rz
    limits (-45.0 90.0)
           (-70.0 20.0)
  end
  begin
     id 5 
     name ltoes
     direction 1.53502e-011 -4.22007e-011 1   
     length 1.04662   
     axis -90 7.62852e-016 20   XYZ
    dof rx
    limits (-90.0 20.0)
  end
  begin
     id 6 
     name rhipjoint
     direction -0.610924 -0.726792 0.313919   
     length 2.39233  
     axis 0 0 0  XYZ 
  end
  begin
     id 7 
     name rfemur
     direction -0.34202 -0.939693 0   
     length 6.96955   
     axis 0 0 -20   XYZ
    dof rx ry rz
    limits (-160.0 20.0)
           (-70.0 70.0)
           (-70.0 60.0)
  end
  begin
     id 8 
     name rtibia
     direction -0.34202 -0.939693 0   
     length 8.19584   
     axis 0 0 -20   XYZ
    dof rx
    limits (-10.0 170.0)
 end
 begin
     id 9 
     name rfoot
     direction -0.077777 -0.213691 0.9738   
     length 2.07539  
     axis -90 -7.62852e-016 -20   XYZ
    dof rx rz
    limits (-45.0 90.0)
           (-20.0 70.0)
  end
  begin
     id 10 
     name rtoes
     direction -1.53558e-011 -4.22006e-011 1   
     length 1.04381   
     axis -90 -7.62852e-016 -20   XYZ
    dof rx
    limits (-90.0 20.0)
  end
  begin
     id 11 
     name lowerback
     direction -0.00971646 0.996074 0.0879841   
     length 1.67643   
     axis 0 0 0   XYZ
    dof rx ry rz
    limits (-20.0 45.0)
           (-30.0 30.0)
           (-30.0 30.0)
  end
  begin
     id 12 
     name upperback
     direction 0.0127391 0.991676 0.128127   
     length 1.63741   
     axis 0 0 0   XYZ
    dof rx ry rz
    limits (-20.0 45.0)
           (-30.0 30.0)
           (-30.0 30.0)
  end
  begin
     id 13 
     name thorax
     direction 0.0167583 0.996049 0.0872067   
     length 1.65931   
     axis 0 0 0   XYZ
    dof rx ry rz
    limits (-20.0 45.0)
           (-30.0 30.0)
           (-30.0 30.0)
  end
  begin
     id 14 
     name lowerneck
     direction -0.0317829 0.998312 0.0486079   
     length 1.79021   
     axis 0 0 0   XYZ
    dof rx ry rz
    limits (-20.0 45.0)
           (-30.0 30.0)
           (-30.0 30.0)
  end
  begin
     id 15 
     name upperneck
     direction 0.0896851 0.972452 -0.215159   
     length 1.78797   
     axis 0 0 0   XYZ
    dof rx ry rz
    limits (-20.0 45.0)
           (-30.0 30.0)
           (-30.0 30.0)
  end
  begin
     id 16
     name head
     direction 0.0310949 0.996503 -0.0775582  
     length 1.81549  
     axis 0 0 0   XYZ
    dof rx ry rz
    limits (-20.0 45.0)
           (-30.0 30.0)
           (-30.0 30.0)
  end
  begin
     id 17 
     name lclavicle
     direction 0.853638 0.502051 -0.138733  
     length 3.31627  
     axis 0 0 0   XYZ
    dof ry rz
    limits (-20.0 10.0)
           (0.0 20.0)
  end
  begin
     id 18 
     name lhumerus
     direction 1 -4.48962e-011 -1.41788e-018   
     length 5.54893   
     axis 180 -30 -90   XYZ
    dof rx ry rz
    limits (-60.0 90.0)
           (-90.0 90.0)
           (-90.0 90.0)
  end
  begin
     id 19
     name lradius
     direction 1 -4.48962e-011 -4.95754e-027   
     length 3.02898   
     axis 180 -30 -90   XYZ
    dof rx
    limits (-10.0 170.0)
  end
  begin
     id 20
     name lwrist
     direction 1 -4.48952e-011 -1.03764e-026   
     length 1.51449   
     axis 9.09556e-015 90 90   XYZ
    dof ry
    limits (-180.0 0.0)
 end
  begin
     id 21 
     name lhand
     direction 1 -4.4902e-011 -2.07528e-026   
     length 0.640951   
     axis 1.3242e-014 90 90   XYZ
    dof rx rz
    limits (-90.0 90.0)
           (-45.0 45.0)
  end
  begin
     id 22 
     name lfingers
     direction 1 -4.49014e-011 -4.15056e-026   
     length 0.516751   
     axis 2.64841e-014 90 90   XYZ
    dof rx
    limits (0.0 90.0)
  end
  begin
     id 23
     name lthumb
     direction 0.707107 -6.35008e-011 0.707107   
     length 0.741954   
     axis -90 45 2.85299e-015   XYZ
    dof rx rz
    limits (-45.0 45.0)
           (-45.0 45.0)
  end
  begin
     id 24 
     name rclavicle
     direction -0.888531 0.455324 -0.0565039   
     length 3.20126  
     axis 0 0 0   XYZ 
    dof ry rz
    limits (-10.0 20.0)
           (-20.0 0.0)
  end
  begin
     id 25 
     name rhumerus
     direction -1 -4.48946e-011 -8.98298e-028  
     length 5.3519   
     axis 180 30 90   XYZ
    dof rx ry rz
    limits (-90.0 60.0)
           (-90.0 90.0)
           (-90.0 90.0)
  end
  begin
     id 26 
     name rradius
     direction -1 -4.4899e-011 -3.18779e-027   
     length 3.02531   
     axis 180 30 90   XYZ
    dof rx
    limits (-10.0 170.0)
  end
  begin
     id 27 
     name rwrist
     direction -1 -4.4897e-011 -1.03764e-026   
     length 1.51266   
     axis 9.09556e-015 -90 -90   XYZ
    dof ry
    limits (-180.0 0.0)
  end
  begin
     id 28
     name rhand
     direction -1 -4.48941e-011 -2.07528e-026   
     length 0.78389   
     axis 1.3242e-014 -90 -90   XYZ
    dof rx rz
    limits (-90.0 90.0)
           (-45.0 45.0)
  end
  begin
     id 29
     name rfingers
     direction -1 -4.49012e-011 -4.15056e-026   
     length 0.631992   
     axis 2.64841e-014 -90 -90   XYZ
    dof rx
    limits (0.0 90.0)
  end
  begin
     id 30
     name rthumb
     direction -0.707107 -6.3496e-011 0.707107   
     length 0.907418   
     axis -90 -45 -2.85299e-015   XYZ
    dof rx rz
    limits (-45.0 45.0)
           (-45.0 45.0)
  end
:hierarchy
  begin
    root lhipjoint rhipjoint lowerback
    lhipjoint lfemur
    lfemur ltibia
    ltibia lfoot
    lfoot ltoes
    rhipjoint rfemur
    rfemur rtibia
    rtibia rfoot
    rfoot rtoes
    lowerback upperback
    upperback thorax
    thorax lowerneck lclavicle rclavicle
    lowerneck upperneck
    upperneck head
    lclavicle lhumerus
    lhumerus lradius
    lradius lwrist
    lwrist lhand lthumb
    lhand lfingers
    rclavicle rhumerus
    rhumerus rradius
    rradius rwrist
    rwrist rhand rthumb
    rhand rfingers
  end

#!OML:ASF E:\Style3\Style3.ASF
:FULLY-SPECIFIED
:DEGREES
2027
root 0.172869 17.8354 0.580438 -94.4934 88.1423 -111.772
lowerback -10.1997 -1.75911 -0.530854
upperback -10.249 -1.70779 1.72362
thorax -4.95457 -0.521798 1.97923
lowerneck -11.9379 -3.11011 -6.02327
upperneck 20.4339 -4.80719 9.18913
head 8.7021 -1.69061 3.61232
rclavicle 3.31722e-015 -4.57205e-015
rhumerus -51.5058 21.1929 -91.8849
rradius 66.4963
rwrist -15.917
rhand -26.1917 22.8669
rfingers 7.12502
rthumb 0.360581 -7.11256
lclavicle 3.31722e-015 -4.57205e-015
lhumerus -49.6261 -12.9105 92.7223
lradius 71.8025
lwrist 46.8221
lhand -32.8719 20.2182
lfingers 7.12502
lthumb -6.09056 50.1106
rfemur -15.0808 12.589 17.8123
rtibia 12.0722
rfoot -13.0116 -20.2188
rtoes -17.2727
lfemur 0 0 0
ltibia 0
lfoot 0 0
ltoes 0
2028
root 0.170245 17.8362 0.579798 -93.2297 88.1548 -110.493
lowerback -10.1285 -1.75198 -0.508364
upperback -10.2286 -1.70316 1.72755
thorax -4.97231 -0.522179 1.9724
lowerneck -11.9882 -3.10129 -6.01499
upperneck 20.3176 -4.78758 9.17174
head 8.66967 -1.68527 3.60414
rclavicle 3.17062e-014 1.49089e-015
rhumerus -51.723 21.583 -92.0882
rradius 68.5034
rwrist -18.2132
rhand -26.2168 22.353
rfingers 7.12502
rthumb 0.336362 -7.62649
lclavicle 3.17062e-014 1.49089e-015
lhumerus -49.6756 -13.2387 92.9427
lradius 73.2281
lwrist 47.3539
lhand -32.7046 20.1722
lfingers 7.12502
lthumb -5.92902 50.0693
rfemur -15.0972 12.5573 17.8167
rtibia 12.0945
rfoot -12.9408 -20.1843
rtoes -17.4313
lfemur 0 0 0
ltibia 0
lfoot 0 0
ltoes 0
2029
root 0.168812 17.8366 0.578241 -91.3613 88.1592 -108.575
lowerback -10.0361 -1.75887 -0.483136
upperback -10.2006 -1.71783 1.75578
thorax -4.99206 -0.532057 1.98873
lowerneck -12.0156 -3.06903 -5.98578
upperneck 20.1987 -4.73151 9.11346
head 8.62751 -1.66596 3.58256
rclavicle 1.41634e-015 7.35503e-015
rhumerus -51.937 22.0391 -92.338
rradius 70.4459
rwrist -20.5398
rhand -26.6442 21.2679
rfingers 7.12502
rthumb -0.0764308 -8.71182
lclavicle 1.41634e-015 7.35503e-015
lhumerus -49.7493 -13.5605 93.2001
lradius 74.6891
lwrist 47.9972
lhand -32.6196 20.0175
lfingers 7.12502
lthumb -5.847 49.9168
rfemur -15.0708 12.4946 17.8408
rtibia 12.1244
rfoot -12.9812 -20.0747
rtoes -17.3091
lfemur 0 0 0
ltibia 0
lfoot 0 0
ltoes 0
2030
root 0.165563 17.8377 0.577747 -89.952 88.1921 -107.129
lowerback -9.95258 -1.76695 -0.49974
upperback -10.1733 -1.7321 1.76453
thorax -5.00702 -0.539841 2.00795
lowerneck -12.0313 -3.04384 -5.94808
upperneck 20.0733 -4.69258 9.08238
head 8.58301 -1.6514 3.56698
rclavicle -1.1455e-014 2.08724e-015
rhumerus -52.2259 22.4756 -92.6118
rradius 72.4875
rwrist -22.8237
rhand -27.2572 20.252
rfingers 7.12502
rthumb -0.668503 -9.7267
lclavicle -1.1455e-014 2.08724e-015
lhumerus -49.8111 -14.0202 93.4743
lradius 76.1064
lwrist 48.7146
lhand -32.4366 19.7091
lfingers 7.12502
lthumb -5.67029 49.6132
rfemur -15.0636 12.483 17.8166
rtibia 12.1341
rfoot -13.0017 -20.0085
rtoes -17.2527
lfemur 0 0 0
ltibia 0
lfoot 0 0
ltoes 0
2031
root 0.161126 17.8404 0.57809 -90.6107 88.1976 -107.849
lowerback -9.92487 -1.79549 -0.495402
upperback -10.1764 -1.77066 1.7724
thorax -5.02396 -0.55927 2.01234
lowerneck -12.066 -3.01736 -5.96739
upperneck 19.9313 -4.659 9.14856
head 8.54063 -1.63373 3.59361
rclavicle 1.76918e-014 -6.95746e-015
rhumerus -52.5533 22.9084 -92.9244
rradius 74.6077
rwrist -25.0078
rhand -27.9533 19.5526
rfingers 7.12502
rthumb -1.34085 -10.4229
lclavicle 1.76918e-014 -6.95746e-015
lhumerus -49.7791 -14.475 93.6963
lradius 77.4277
lwrist 49.3117
lhand -31.926 20.4749
lfingers 7.12502
lthumb -5.17727 50.3917
rfemur -15.1673 12.5375 17.7738
rtibia 12.1491
rfoot -12.9399 -20.078
rtoes -17.0228
lfemur 0 0 0
ltibia 0
lfoot 0 0
ltoes 0
2032
root 0.156312 17.843 0.578273 -92.334 88.1758 -109.671
lowerback -9.90907 -1.82926 -0.471359
upperback -10.2073 -1.81385 1.78795
thorax -5.06487 -0.580321 2.01368
lowerneck -12.1262 -3.0025 -5.96855
upperneck 19.8625 -4.63577 9.15654
head 8.5268 -1.62307 3.59732
rclavicle 9.7156e-015 -6.95746e-016
rhumerus -52.7628 23.2831 -93.1941
rradius 76.5549
rwrist -27.179
rhand -28.6053 18.9574
rfingers 7.12502
rthumb -1.97049 -11.0132
lclavicle 9.7156e-015 -6.95746e-016
lhumerus -49.8246 -14.8775 93.934
lradius 78.7688
lwrist 49.8644
lhand -31.5731 21.2633
lfingers 7.12502
lthumb -4.83657 51.1881
rfemur -15.301 12.5647 17.7515
rtibia 12.1659
rfoot -12.9557 -20.1475
rtoes -16.6507
lfemur 0 0 0
ltibia 0
lfoot 0 0
ltoes 0
